# This file uses centimeters as units for non-parametric coordinates.

mtllib l_hand_collider.mtl
g default
v 30.875322 -5.170089 115.534607
v -38.560604 -5.170089 115.534607
v 30.875322 40.253559 115.534607
v -38.560604 40.253563 115.534607
v 125.518631 5.094196 31.634953
v 125.518631 -16.474041 31.634953
v 36.433113 20.260244 -91.574959
v 133.566345 5.094196 55.273571
v 133.566345 -16.474041 55.273571
v 36.433113 3.104927 -86.630226
v -51.239376 40.249577 38.113815
v -51.239376 -6.654313 38.113815
v -7.439462 3.104927 -97.230751
v -7.439462 20.260242 -102.175499
v -64.573540 1.347898 -73.163063
v -64.573540 19.588669 -78.107803
v 28.627947 39.785725 24.778536
vt 0.375000 0.000000
vt 0.625000 0.000000
vt 0.375000 0.250000
vt 0.625000 0.250000
vt 0.375000 0.500000
vt 0.375000 0.750000
vt 0.375000 1.000000
vt 0.625000 1.000000
vt 0.125000 0.000000
vt 0.125000 0.250000
vt 0.625000 0.432122
vt 0.807122 0.250000
vt 0.192878 0.250000
vt 0.375000 0.432122
vt 0.192878 0.000000
vt 0.375000 0.817878
vt 0.625000 0.817878
vt 0.807122 0.000000
vt 0.625000 0.333717
vt 0.708717 0.250000
vt 0.625000 0.916283
vt 0.708717 0.000000
vt 0.625000 0.846794
vt 0.778206 0.000000
vt 0.625000 0.403206
vt 0.778206 0.250000
vt 0.625000 0.870269
vt 0.754732 0.000000
vt 0.625000 0.379732
vt 0.754732 0.250000
vt 0.517509 0.384041
vn 0.000000 0.000000 1.000000
vn 0.000000 0.000000 1.000000
vn 0.000000 0.000000 1.000000
vn 0.000000 0.000000 1.000000
vn 0.797022 -0.076499 -0.599086
vn 0.720339 -0.115298 -0.683973
vn 0.676317 -0.134807 -0.724170
vn 0.797022 -0.076499 -0.599086
vn -0.986854 0.000000 0.161612
vn -0.986854 0.000000 0.161612
vn -0.990174 0.004216 0.139775
vn -0.990308 0.004400 0.138820
vn 0.618346 0.000000 0.785906
vn 0.596847 0.000000 0.802355
vn 0.506112 0.000000 0.862468
vn 0.506112 0.000000 0.862468
vn 0.946644 0.000000 -0.322283
vn 0.946644 0.000000 -0.322283
vn 0.138214 0.986172 -0.091443
vn 0.134530 0.990790 -0.015385
vn 0.322312 0.946063 -0.032876
vn 0.328907 0.942195 -0.063936
vn -0.052500 -0.996695 0.061985
vn 0.000000 -0.999816 0.019167
vn -0.041272 -0.998160 -0.044431
vn -0.983612 -0.067430 -0.167214
vn -0.995669 -0.044584 -0.081584
vn -0.123362 -0.270442 -0.954800
vn -0.135093 -0.269877 -0.953371
vn -0.023995 0.995613 -0.090437
vn -0.028876 0.987357 -0.155858
vn -0.043611 0.987067 -0.154260
vn 0.192042 0.969875 -0.149874
vn 0.002834 0.999991 -0.003057
vn -0.034732 -0.994271 -0.101084
vn -0.059529 -0.998208 -0.006150
vn -0.059182 -0.995967 0.067428
vn 0.008112 -0.997563 -0.069306
vn 0.008112 -0.997563 -0.069306
s off
g l_hand_collider
usemtl initialShadingGroup
f 1/1/1 3/3/2 4/4/3 2/2/4
s 1
f 6/6/5 10/18/6 7/12/7 5/5/8
f 2/2/9 4/4/10 11/20/11 12/22/12
s 3
f 9/15/13 8/13/14 3/3/15 1/1/16
f 6/9/17 5/10/18 8/13/14 9/15/13
s 4
f 17/31/19 3/3/20 8/14/21 5/5/22
s 5
f 1/7/23 2/8/24 12/21/25
s 1
f 11/20/11 16/30/26 15/28/27 12/22/12
f 14/26/28 7/12/7 10/18/6 13/24/29
f 16/30/26 14/26/28 13/24/29 15/28/27
s 4
f 11/19/30 17/31/19 14/25/31 16/29/32
f 5/5/22 7/11/33 17/31/19
f 17/31/19 11/19/30 4/4/34 3/3/20
s 5
f 10/17/35 6/6/36 12/21/25
f 9/16/37 1/7/23 12/21/25 6/6/36
f 15/27/38 13/23/39 10/17/35 12/21/25
s 4
f 17/31/19 7/11/33 14/25/31
