# Blender v2.90.1 OBJ File: ''
# www.blender.org
mtllib ph_distal.mtl
o ph_distal
v 12.833673 -10.489445 6.750000
v 4.500000 -10.489445 -6.750000
v 12.833673 -10.489445 -6.750000
v 17.861502 6.464622 -6.750000
v 15.170395 -10.225858 -6.750000
v 17.389141 4.318938 -6.750000
v 4.500000 -10.489445 6.750000
v 2.953542 -10.186625 6.750000
v 2.953701 -10.186675 -6.750000
v 0.000000 6.500000 6.750000
v 15.170451 -10.225845 6.750000
v 0.740880 -8.026215 -6.750000
v 0.401175 -6.487608 6.750000
v 0.401175 -6.487607 -6.750000
v -1.884830 -6.220737 6.750000
v 0.000000 6.500000 -6.750000
v -1.884255 -6.220878 -6.750000
v 0.740934 -8.026372 6.750000
v 1.635779 -9.323083 -6.750000
v 1.635756 -9.323106 6.750000
v 18.653887 6.648322 6.750000
v 17.861502 6.464622 6.750000
v 19.458155 4.599999 6.750000
v 17.670561 4.599999 6.750000
v 18.652378 6.648057 -6.750000
v 17.670561 4.600000 -6.750000
v 17.539881 4.449426 -6.750000
v 19.458155 6.746770 6.750000
v 19.458155 6.746771 -6.750000
v 21.236696 6.662125 6.454304
v 21.148146 6.676249 -6.483648
v 19.458155 4.600000 -6.750000
v 22.769024 6.241510 5.642032
v 22.774845 6.239239 -5.637548
v 21.262316 4.600000 -6.445672
v 23.449286 5.937380 5.035344
v 23.490530 5.916320 -4.990527
v 22.866821 4.600000 -5.566364
v 24.094105 5.570312 4.209387
v 24.094105 5.570312 -4.209386
v 24.958347 4.932051 2.360977
v 24.959885 4.930739 -2.356117
v 24.094105 4.600000 -4.209387
v 25.216047 4.701973 1.288882
v 25.216444 4.701603 -1.286609
v 24.989433 4.600000 -2.260429
v 25.322636 4.600000 0.137989
v 25.322632 4.600000 -0.137988
v 23.323149 4.600000 0.000000
v 22.907385 4.600000 -2.465289
v 24.989433 4.600000 2.260429
v 24.094105 4.600000 4.209387
v 22.866821 4.599999 5.566364
v 21.262316 4.599999 6.445672
v 21.705883 4.600000 -4.658186
v 20.888445 4.600000 -5.493214
v 22.907385 4.600000 2.465289
v 21.705883 4.600000 4.658186
v 23.211004 -1.529481 1.293434
v 23.323116 -0.000001 0.000000
v 23.207821 -1.550921 -1.311529
v 22.867655 -3.057391 2.576849
v 22.346819 -4.419332 3.704712
v 22.354694 -4.402208 -3.690775
v 22.871370 -3.045172 -2.566646
v 21.705883 -5.595742 4.658186
v 20.888445 4.599999 5.493214
v 21.705883 -5.595742 -4.658187
v 21.082529 -6.479568 5.325399
v 21.082529 -6.479568 -5.325400
v 17.389141 -4.507938 6.750000
v 17.546047 -3.370005 6.750000
v 17.389141 -2.233286 6.750000
v 17.389141 4.318937 6.750000
v 18.893862 -8.561691 6.540162
v 17.539549 4.449100 6.747943
v 17.670561 4.599999 6.742795
v 17.389141 -9.448606 6.750000
v 17.389141 -9.448606 -6.750000
v 18.893862 -8.561691 -6.540163
v -2.265176 6.092546 6.750000
v -3.934290 -5.174147 6.750000
v -3.933782 -5.174417 -6.750000
v -4.246134 4.921461 6.750000
v -5.490545 -3.479112 6.750000
v -5.694806 3.133607 6.750000
v -6.358742 -1.347748 6.750000
v -5.490334 -3.479220 -6.750000
v -6.429801 0.952721 6.750000
v -6.358617 -1.347749 -6.750000
v -5.694602 3.133728 -6.750000
v -6.429677 0.952731 -6.750000
v -4.245644 4.921763 -6.750000
v -2.264611 6.092725 -6.750000
v 17.539881 4.449425 6.750000
v 18.823933 4.599999 6.559555
v 20.390846 -7.274446 5.858661
v 20.390846 -7.274446 -5.858662
v 19.913120 4.600000 -6.136668
v 18.823933 4.600000 -6.559555
v 17.389141 -4.507937 -6.750000
v 17.546047 -3.370004 -6.750000
v 17.389141 -2.233286 -6.750000
v 19.913120 4.599999 6.136668
v 17.539549 4.449101 -6.747943
v 17.670561 4.600000 -6.742795
vn 0.0404 -0.7182 0.6947
vn -0.0702 -0.7242 -0.6860
vn 0.0404 -0.7182 -0.6947
vn -0.0766 0.6749 -0.7338
vn 0.1628 -0.7123 -0.6827
vn 0.0060 -0.0012 -1.0000
vn -0.0702 -0.7242 0.6860
vn -0.2812 -0.6906 0.6663
vn -0.2812 -0.6906 -0.6663
vn -0.0638 0.7234 0.6874
vn 0.1628 -0.7123 0.6827
vn -0.6837 -0.2977 -0.6663
vn -0.3383 -0.3744 0.8633
vn -0.3383 -0.3744 -0.8633
vn -0.2154 -0.7110 0.6693
vn -0.0638 0.7234 -0.6874
vn -0.2154 -0.7110 -0.6693
vn -0.6837 -0.2977 0.6663
vn -0.5209 -0.5335 -0.6663
vn -0.5209 -0.5335 0.6663
vn -0.1250 0.7077 0.6954
vn -0.0765 0.6750 0.7338
vn 0.0605 -0.6888 0.7224
vn 0.2414 -0.5291 0.8134
vn -0.1250 0.7077 -0.6954
vn 0.2414 -0.5292 -0.8134
vn 0.5167 -0.5070 -0.6899
vn 0.0305 0.7080 0.7056
vn 0.0254 0.7085 -0.7052
vn 0.3048 0.6756 0.6713
vn 0.2951 0.6778 -0.6734
vn 0.0587 -0.6897 -0.7217
vn 0.5655 0.6098 0.5553
vn 0.5644 0.6106 -0.5554
vn 0.2431 -0.6730 -0.6985
vn 0.7185 0.5375 0.4413
vn 0.7329 0.5226 -0.4355
vn 0.4524 -0.6784 -0.5789
vn 0.8077 0.4876 0.3312
vn 0.8045 0.4795 -0.3505
vn 0.8809 0.4183 0.2214
vn 0.8808 0.4230 -0.2127
vn 0.6146 -0.6751 -0.4078
vn 0.9894 0.1104 0.0938
vn 0.9896 0.1093 -0.0938
vn 0.6923 -0.6868 -0.2216
vn 0.9280 -0.3724 0.0058
vn 0.9280 -0.3725 -0.0058
vn 0.6681 -0.7440 0.0035
vn 0.6303 -0.7437 -0.2225
vn 0.6922 -0.6855 0.2255
vn 0.6180 -0.6803 0.3940
vn 0.4473 -0.6799 0.5811
vn 0.2409 -0.6725 0.6998
vn 0.5416 -0.7388 -0.4010
vn 0.4342 -0.7310 -0.5263
vn 0.6298 -0.7453 0.2185
vn 0.5413 -0.7385 0.4021
vn 0.9901 -0.0867 0.1100
vn 0.9998 -0.0082 0.0155
vn 0.9897 -0.0901 -0.1109
vn 0.9650 -0.1588 0.2084
vn 0.9311 -0.2337 0.2800
vn 0.9283 -0.2246 -0.2962
vn 0.9664 -0.1635 -0.1982
vn 0.8815 -0.3000 0.3646
vn 0.4343 -0.7313 0.5258
vn 0.8830 -0.2980 -0.3626
vn 0.8194 -0.3612 0.4450
vn 0.8192 -0.3615 -0.4451
vn 0.0505 -0.0059 0.9987
vn 0.0745 -0.0015 0.9972
vn 0.0000 0.0000 1.0000
vn 0.0059 -0.0011 1.0000
vn 0.5260 -0.5418 0.6556
vn 0.5021 -0.4886 0.7135
vn 0.3757 -0.7143 0.5903
vn 0.3294 -0.6428 0.6916
vn 0.3292 -0.6429 -0.6915
vn 0.5262 -0.5417 -0.6555
vn -0.2589 0.6964 0.6693
vn -0.4497 -0.5914 0.6693
vn -0.4496 -0.5914 -0.6693
vn -0.4853 0.5625 0.6693
vn -0.6276 -0.3976 0.6693
vn -0.6509 0.3581 0.6693
vn -0.7268 -0.1540 0.6693
vn -0.6276 -0.3977 -0.6693
vn -0.7349 0.1089 0.6693
vn -0.7268 -0.1540 -0.6693
vn -0.6509 0.3582 -0.6693
vn -0.7349 0.1089 -0.6693
vn -0.4853 0.5625 -0.6693
vn -0.2589 0.6964 -0.6693
vn 0.5164 -0.5071 0.6900
vn 0.1775 -0.7318 0.6579
vn 0.7130 -0.4413 0.5449
vn 0.7130 -0.4413 -0.5449
vn 0.3126 -0.7313 -0.6061
vn 0.1773 -0.7320 -0.6578
vn 0.0000 0.0000 -1.0000
vn 0.0878 -0.0022 -0.9961
vn 0.0009 0.0001 -1.0000
vn 0.3126 -0.7313 0.6061
vn 0.5022 -0.4886 -0.7135
vn 0.3757 -0.7145 -0.5901
usemtl FlangeMaterial
s 1
f 1//1 2//2 3//3
f 4//4 3//3 2//2
f 5//5 1//1 3//3
f 6//6 3//3 4//4
f 6//6 5//5 3//3
f 1//1 7//7 2//2
f 8//8 2//2 7//7
f 9//9 2//2 8//8
f 4//4 2//2 9//9
f 10//10 7//7 1//1
f 10//10 8//8 7//7
f 10//10 1//1 11//11
f 5//5 11//11 1//1
f 12//12 13//13 14//14
f 15//15 14//14 13//13
f 4//4 12//12 14//14
f 16//16 4//4 14//14
f 17//17 14//14 15//15
f 17//17 16//16 14//14
f 12//12 18//18 13//13
f 10//10 13//13 18//18
f 10//10 15//15 13//13
f 19//19 20//20 18//18
f 10//10 18//18 20//20
f 12//12 19//19 18//18
f 9//9 8//8 20//20
f 10//10 20//20 8//8
f 19//19 9//9 20//20
f 4//4 9//9 19//19
f 4//4 19//19 12//12
f 21//21 4//4 22//22
f 16//16 22//22 4//4
f 23//23 21//21 22//22
f 24//24 22//22 10//10
f 16//16 10//10 22//22
f 24//24 23//23 22//22
f 21//21 25//25 4//4
f 26//26 4//4 25//25
f 27//27 6//6 4//4
f 26//26 27//27 4//4
f 28//28 29//29 25//25
f 26//26 25//25 29//29
f 21//21 28//28 25//25
f 30//30 31//31 29//29
f 32//32 29//29 31//31
f 28//28 30//30 29//29
f 32//32 26//26 29//29
f 33//33 34//34 31//31
f 35//35 31//31 34//34
f 30//30 33//33 31//31
f 35//35 32//32 31//31
f 36//36 37//37 34//34
f 38//38 34//34 37//37
f 33//33 36//36 34//34
f 38//38 35//35 34//34
f 39//39 40//40 37//37
f 38//38 37//37 40//40
f 36//36 39//39 37//37
f 41//41 42//42 40//40
f 43//43 40//40 42//42
f 39//39 41//41 40//40
f 38//38 40//40 43//43
f 44//44 45//45 42//42
f 46//46 42//42 45//45
f 41//41 44//44 42//42
f 46//46 43//43 42//42
f 47//47 48//48 45//45
f 46//46 45//45 48//48
f 44//44 47//47 45//45
f 49//49 48//48 47//47
f 50//50 46//46 48//48
f 50//50 48//48 49//49
f 51//51 47//47 44//44
f 49//49 47//47 51//51
f 51//51 44//44 41//41
f 51//51 41//41 39//39
f 52//52 39//39 36//36
f 52//52 51//51 39//39
f 53//53 36//36 33//33
f 53//53 52//52 36//36
f 54//54 33//33 30//30
f 54//54 53//53 33//33
f 54//54 30//30 28//28
f 23//23 28//28 21//21
f 54//54 28//28 23//23
f 50//50 43//43 46//46
f 55//55 43//43 50//50
f 56//56 43//43 55//55
f 38//38 43//43 56//56
f 57//57 51//51 52//52
f 49//49 51//51 57//57
f 57//57 52//52 58//58
f 53//53 58//58 52//52
f 57//57 59//59 60//60
f 61//61 60//60 59//59
f 49//49 57//57 60//60
f 61//61 49//49 60//60
f 57//57 62//62 59//59
f 61//61 59//59 62//62
f 58//58 63//63 62//62
f 64//64 62//62 63//63
f 57//57 58//58 62//62
f 65//65 62//62 64//64
f 61//61 62//62 65//65
f 58//58 66//66 63//63
f 64//64 63//63 66//66
f 67//67 66//66 58//58
f 64//64 66//66 68//68
f 69//69 68//68 66//66
f 67//67 69//69 66//66
f 53//53 67//67 58//58
f 61//61 50//50 49//49
f 68//68 55//55 50//50
f 64//64 68//68 50//50
f 65//65 64//64 50//50
f 61//61 65//65 50//50
f 70//70 55//55 68//68
f 56//56 55//55 70//70
f 69//69 70//70 68//68
f 71//71 72//72 73//73
f 74//74 73//73 72//72
f 10//10 71//71 73//73
f 74//74 10//10 73//73
f 75//75 72//72 71//71
f 76//76 74//74 72//72
f 77//77 72//72 75//75
f 77//77 76//76 72//72
f 10//10 78//78 71//71
f 75//75 71//71 78//78
f 10//10 11//11 78//78
f 79//79 78//78 11//11
f 79//79 80//80 78//78
f 75//75 78//78 80//80
f 5//5 79//79 11//11
f 81//81 82//82 15//15
f 83//83 15//15 82//82
f 10//10 81//81 15//15
f 17//17 15//15 83//83
f 84//84 85//85 82//82
f 83//83 82//82 85//85
f 81//81 84//84 82//82
f 86//86 87//87 85//85
f 88//88 85//85 87//87
f 84//84 86//86 85//85
f 83//83 85//85 88//88
f 86//86 89//89 87//87
f 90//90 87//87 89//89
f 88//88 87//87 90//90
f 91//91 89//89 86//86
f 92//92 89//89 91//91
f 90//90 89//89 92//92
f 91//91 86//86 84//84
f 93//93 84//84 81//81
f 91//91 84//84 93//93
f 94//94 81//81 10//10
f 93//93 81//81 94//94
f 95//95 24//24 10//10
f 74//74 95//95 10//10
f 94//94 10//10 16//16
f 77//77 23//23 24//24
f 96//96 23//23 77//77
f 54//54 23//23 96//96
f 77//77 24//24 95//95
f 76//76 95//95 74//74
f 77//77 95//95 76//76
f 97//97 98//98 70//70
f 56//56 70//70 98//98
f 69//69 97//97 70//70
f 75//75 80//80 98//98
f 99//99 98//98 80//80
f 97//97 75//75 98//98
f 99//99 56//56 98//98
f 100//100 80//80 79//79
f 100//100 99//99 80//80
f 101//101 79//79 5//5
f 102//102 79//79 101//101
f 100//100 79//79 102//102
f 103//103 5//5 6//6
f 103//103 101//101 5//5
f 104//104 75//75 97//97
f 96//96 77//77 75//75
f 104//104 96//96 75//75
f 67//67 97//97 69//69
f 67//67 104//104 97//97
f 105//105 6//6 27//27
f 105//105 103//103 6//6
f 105//105 27//27 26//26
f 35//35 26//26 32//32
f 105//105 26//26 106//106
f 35//35 106//106 26//26
f 17//17 94//94 16//16
f 83//83 93//93 94//94
f 17//17 83//83 94//94
f 88//88 91//91 93//93
f 83//83 88//88 93//93
f 90//90 92//92 91//91
f 88//88 90//90 91//91
f 103//103 102//102 101//101
f 105//105 102//102 103//103
f 106//106 100//100 102//102
f 105//105 106//106 102//102
f 54//54 96//96 104//104
f 53//53 104//104 67//67
f 54//54 104//104 53//53
f 38//38 56//56 99//99
f 35//35 99//99 100//100
f 38//38 99//99 35//35
f 35//35 100//100 106//106
